<svg xmlns="http://www.w3.org/2000/svg" viewBox="0 0 360 360"><g id="Layer_2" data-name="Layer 2"><g id="Layer_1-2" data-name="Layer 1"><polygon points="180 302.58 82.9 340.14 86.88 231.21 22.27 144.88 122.69 115 180 24.98 237.31 115 337.73 144.88 273.12 231.21 277.1 340.14 180 302.58"/><path d="M180,50l43.31,68,5.38,8.45,9.6,2.86,77.17,23-50.24,67.13L259.54,227l.34,9.46L263,320.28l-73.27-28.34L180,288.2l-9.68,3.74L97.05,320.28l3.07-83.85.34-9.46-5.68-7.59L44.54,152.25l77.17-23,9.6-2.86,5.38-8.45L180,50m0-50L114.06,103.57,0,137.51l73.3,98L68.75,360,180,317l111.25,43L286.7,235.46l73.3-98L245.94,103.57,180,0Z"/></g></g></svg>