<svg xmlns="http://www.w3.org/2000/svg" viewBox="0 0 360 360"><defs><style>.cls-1{fill:none;}</style></defs><g id="Layer_2" data-name="Layer 2"><g id="Layer_1-2" data-name="Layer 1"><polygon class="cls-1" points="223.31 117.98 228.69 126.43 238.29 129.29 315.46 152.25 265.22 219.38 259.54 226.97 259.88 236.44 262.95 320.28 189.68 291.94 181 288.58 181 51.53 223.31 117.98"/><polygon points="73.3 235.46 0 137.51 114.06 103.57 179 1.57 179 51.53 136.69 117.98 131.31 126.43 121.71 129.29 44.54 152.25 94.78 219.38 100.46 226.97 100.12 236.44 97.05 320.28 170.32 291.94 179 288.58 179 317.35 68.75 360 73.3 235.46"/><path d="M94.78,219.38l5.68,7.59-.34,9.46-3.07,83.85,73.27-28.34,8.68-3.36h0l1-.38h0l1,.38v28.77L291.25,360,286.7,235.46l73.3-98L245.94,103.57,181,1.57v50L180,50h0l-1,1.57h0L136.69,118l-5.38,8.45-9.6,2.86-77.17,23ZM181,51.53,223.31,118l5.38,8.45,9.6,2.86,77.17,23-50.24,67.13L259.54,227l.34,9.46L263,320.28l-73.27-28.34L181,288.58Z"/><polygon points="180 288.2 180 302.48 180 316.96 179 317.35 179 288.58 180 288.2"/><polygon points="180 302.48 180 288.2 181 288.58 181 317.35 180 316.96 180 302.48"/><polygon points="180 49.96 180 27.52 180 0 181 1.57 181 51.53 180 49.96"/><polygon points="180 27.52 180 49.96 179 51.53 179 1.57 180 0 180 27.52"/></g></g></svg>